<?xml version="1.0" encoding="utf-8"?>
<!-- Generator: Adobe Illustrator 24.1.0, SVG Export Plug-In . SVG Version: 6.00 Build 0)  -->
<svg version="1.1" id="Capa_1" xmlns="http://www.w3.org/2000/svg" xmlns:xlink="http://www.w3.org/1999/xlink" x="0px" y="0px"
	 viewBox="0 0 379.14 98.78" style="enable-background:new 0 0 379.14 98.78;" xml:space="preserve">
<style type="text/css">
	.st0{fill:#2A3375;}
	.st1{fill:#1C9CD8;}
	.st2{fill:#FFFFFF;}
</style>
<g>
	<path class="st0" d="M138.84,45.4c0-25.01-31.08-45.4-69.42-45.4C31.09,0,0.01,20.39,0.01,45.4c0,0.65-0.01,2.43-0.01,2.66
		C0,74.6,27.16,96.09,69.41,96.09c42.51,0,69.43-21.49,69.43-48.02C138.84,47.14,138.84,46.61,138.84,45.4"/>
	<path class="st1" d="M136.18,45.38c0,23.58-29.88,42.7-66.75,42.7c-36.86,0-66.75-19.12-66.75-42.7c0-23.58,29.88-42.7,66.75-42.7
		C106.3,2.68,136.18,21.8,136.18,45.38"/>
	<path class="st2" d="M47.27,31.91c-0.04,0.07-0.7,0.76-0.27,1.31c1.05,1.35,4.31,2.12,7.6,1.38c1.96-0.44,4.47-2.44,6.9-4.37
		c2.64-2.1,5.25-4.19,7.88-5.02c2.78-0.89,4.57-0.51,5.74-0.15c1.29,0.39,2.81,1.24,5.24,3.06c4.57,3.43,22.93,19.46,26.1,22.23
		c2.56-1.15,13.91-6.04,29.35-9.45c-1.34-8.23-6.35-15.76-13.94-21.92c-10.58,4.44-23.51,6.76-36.15,0.59
		c-0.06-0.03-6.91-3.26-13.66-3.1c-10.03,0.23-14.38,4.57-18.98,9.17L47.27,31.91"/>
	<path class="st2" d="M105.72,52.09c-0.21-0.19-21.59-18.9-26.44-22.54c-2.8-2.1-4.36-2.64-6-2.85c-0.85-0.11-2.03,0.05-2.85,0.27
		c-2.25,0.61-5.2,2.58-7.81,4.66c-2.71,2.16-5.26,4.19-7.63,4.72c-3.03,0.68-6.72-0.12-8.41-1.26c-0.68-0.46-1.16-0.99-1.4-1.53
		c-0.62-1.44,0.53-2.6,0.72-2.79l5.9-6.38c0.68-0.68,1.38-1.37,2.08-2.04c-1.9,0.25-3.66,0.73-5.38,1.21
		c-2.14,0.6-4.19,1.17-6.27,1.17c-0.87,0-5.52-0.76-6.4-1c-5.34-1.46-10.02-2.88-17.02-6.15C10.42,23.82,4.81,31.62,3.19,40.22
		c1.2,0.32,3.15,0.9,3.96,1.08c18.98,4.22,24.89,8.57,25.96,9.47c1.16-1.29,2.84-2.11,4.71-2.11c2.1,0,3.99,1.06,5.14,2.69
		c1.09-0.86,2.59-1.59,4.52-1.59c0.88,0,1.79,0.16,2.71,0.48c2.14,0.73,3.25,2.16,3.82,3.45c0.72-0.32,1.6-0.56,2.64-0.56
		c1.02,0,2.08,0.23,3.16,0.7c3.5,1.5,4.04,4.94,3.73,7.53c0.25-0.03,0.5-0.04,0.75-0.04c4.15,0,7.52,3.38,7.52,7.53
		c0,1.28-0.33,2.49-0.9,3.55c1.13,0.64,4.01,2.07,6.53,1.75c2.02-0.25,2.78-0.94,3.06-1.33c0.19-0.27,0.39-0.58,0.2-0.8l-5.36-5.95
		c0,0-0.88-0.83-0.59-1.15c0.3-0.33,0.85,0.14,1.23,0.47c2.73,2.28,6.05,5.71,6.05,5.71c0.06,0.04,0.28,0.47,1.51,0.69
		c1.06,0.19,2.93,0.08,4.23-0.99c0.33-0.27,0.65-0.61,0.93-0.95c-0.02,0.02-0.04,0.04-0.06,0.05c1.37-1.75-0.15-3.53-0.15-3.53
		l-6.25-7.02c0,0-0.89-0.83-0.59-1.16c0.27-0.29,0.85,0.15,1.24,0.47c1.98,1.65,4.78,4.46,7.46,7.09c0.52,0.38,2.88,1.84,6-0.21
		c1.89-1.24,2.27-2.77,2.22-3.92C98.46,60.09,97.27,59,97.27,59l-8.54-8.59c0,0-0.9-0.77-0.58-1.16c0.26-0.33,0.85,0.14,1.23,0.46
		c2.72,2.28,10.09,9.03,10.09,9.03c0.1,0.07,2.65,1.89,5.79-0.12c1.12-0.72,1.84-1.8,1.9-3.06
		C107.26,53.39,105.72,52.09,105.72,52.09"/>
	<path class="st2" d="M64.3,62.98c-1.33-0.02-2.77,0.77-2.96,0.66c-0.11-0.07,0.08-0.6,0.2-0.91c0.13-0.3,1.87-5.55-2.38-7.37
		c-3.25-1.4-5.24,0.18-5.93,0.89c-0.18,0.19-0.26,0.17-0.28-0.07c-0.07-0.95-0.49-3.5-3.3-4.36c-4.01-1.23-6.59,1.57-7.25,2.58
		c-0.29-2.29-2.23-4.06-4.6-4.06c-2.57,0-4.66,2.08-4.66,4.65c0,2.57,2.08,4.66,4.66,4.66c1.25,0,2.39-0.5,3.22-1.3
		c0.03,0.02,0.04,0.07,0.02,0.16c-0.2,1.15-0.56,5.34,3.83,7.04c1.76,0.68,3.25,0.17,4.49-0.7c0.37-0.26,0.43-0.15,0.38,0.2
		c-0.16,1.08,0.04,3.38,3.27,4.69c2.46,1,3.91-0.02,4.87-0.9c0.41-0.38,0.53-0.32,0.55,0.27c0.12,3.12,2.71,5.59,5.85,5.59
		c3.24,0,5.86-2.61,5.86-5.85C70.16,65.6,67.54,63.01,64.3,62.98"/>
	<path class="st0" d="M106.55,49.85c-6.59-5.75-21.8-18.98-25.93-22.07c-2.36-1.77-3.96-2.71-5.37-3.13
		c-0.63-0.19-1.51-0.41-2.64-0.41c-1.05,0-2.17,0.19-3.35,0.56c-2.66,0.84-5.32,2.95-7.88,4.99l-0.13,0.1
		c-2.39,1.9-4.86,3.87-6.73,4.29c-0.82,0.18-1.66,0.28-2.49,0.28c-2.09,0-3.98-0.61-4.68-1.51c-0.12-0.15-0.04-0.39,0.23-0.74
		l0.04-0.05l5.79-6.24c4.54-4.54,8.82-8.82,18.69-9.05c0.16,0,0.33-0.01,0.49-0.01c6.14,0,12.28,2.75,12.97,3.07
		c5.76,2.81,11.7,4.23,17.67,4.24c6.23,0,12.65-1.54,19.4-4.65c-0.75-0.64-1.54-1.25-2.35-1.86c-5.93,2.57-11.59,3.87-17.04,3.87
		c-5.57,0-11.14-1.34-16.54-3.98c-0.29-0.14-7.06-3.33-14.12-3.33c-0.18,0-0.37,0-0.56,0.01c-8.29,0.19-12.95,3.14-16.09,5.71
		c-3.05,0.07-5.69,0.81-8.03,1.46c-2.09,0.58-3.9,1.08-5.66,1.08c-0.73,0-2.03-0.07-2.15-0.07c-2.02-0.06-12.23-2.56-20.35-5.64
		c-0.83,0.59-1.63,1.19-2.4,1.81c8.48,3.48,18.8,6.17,22.06,6.38c0.91,0.06,1.87,0.16,2.84,0.16c2.15,0,4.31-0.6,6.39-1.19
		c1.23-0.35,2.58-0.72,4.01-0.99c-0.38,0.38-0.76,0.75-1.14,1.13l-5.89,6.37c-0.46,0.47-1.47,1.72-0.81,3.25
		c0.26,0.62,0.8,1.21,1.55,1.72c1.4,0.95,3.91,1.58,6.25,1.58c0.88,0,1.72-0.09,2.49-0.26c2.47-0.55,5.05-2.62,7.8-4.8
		c2.18-1.73,5.29-3.94,7.66-4.59c0.67-0.18,1.48-0.29,2.14-0.29c0.2,0,0.38,0.01,0.55,0.03c1.57,0.2,3.09,0.73,5.8,2.77
		c4.83,3.63,26.21,22.33,26.42,22.52c0.01,0.01,1.38,1.19,1.28,3.14c-0.05,1.09-0.66,2.06-1.71,2.73c-0.91,0.58-1.85,0.87-2.81,0.87
		c-1.43,0-2.41-0.67-2.48-0.72c-0.08-0.06-7.4-6.78-10.1-9.04c-0.43-0.36-0.85-0.68-1.27-0.68c-0.23,0-0.42,0.1-0.56,0.26
		c-0.42,0.52,0.05,1.25,0.61,1.72l8.56,8.6c0.01,0.01,1.07,1,1.18,2.32c0.07,1.43-0.61,2.62-2.03,3.55c-1.01,0.66-2.03,1-3.03,1
		c-1.31,0-2.24-0.6-2.44-0.74l-1.23-1.21c-2.24-2.21-4.56-4.49-6.26-5.9c-0.41-0.34-0.85-0.66-1.27-0.66c-0.21,0-0.4,0.08-0.54,0.23
		c-0.19,0.21-0.33,0.6,0.15,1.24c0.2,0.26,0.43,0.48,0.43,0.48l6.24,7.01c0.05,0.06,1.29,1.53,0.14,2.99l-0.22,0.28
		c-0.19,0.21-0.39,0.4-0.58,0.56c-1.07,0.87-2.49,0.97-3.05,0.97c-0.3,0-0.59-0.03-0.84-0.07c-0.62-0.11-1.03-0.28-1.23-0.52
		l-0.08-0.08c-0.34-0.35-3.49-3.57-6.09-5.74c-0.34-0.29-0.77-0.65-1.21-0.65c-0.22,0-0.41,0.09-0.56,0.25
		c-0.52,0.56,0.26,1.41,0.59,1.72l5.33,5.87c-0.01,0.05-0.07,0.17-0.2,0.36c-0.19,0.26-0.84,0.91-2.77,1.15
		c-0.23,0.03-0.47,0.04-0.71,0.04c-1.99,0-4.12-0.97-5.21-1.55c0.5-1.05,0.76-2.21,0.76-3.38c0-4.38-3.56-7.95-7.94-7.95
		c-0.09,0-0.19,0-0.29,0.01c0.14-2-0.14-5.79-4.03-7.46c-1.12-0.48-2.24-0.73-3.32-0.73c-0.85,0-1.67,0.14-2.43,0.44
		c-0.81-1.57-2.14-2.71-3.89-3.3c-0.96-0.33-1.92-0.5-2.85-0.5c-1.62,0-3.11,0.48-4.44,1.42c-1.27-1.58-3.2-2.52-5.23-2.52
		c-1.77,0-3.48,0.71-4.74,1.96c-1.66-1.27-8.23-5.44-25.83-9.44c-0.85-0.19-2.81-0.75-4.01-1.1c-0.2,0.95-0.35,1.92-0.45,2.89
		c0,0,3.25,0.78,3.88,0.92c17.98,3.99,23.92,8.14,24.92,8.93c-0.34,0.82-0.52,1.7-0.52,2.59c0,3.71,3.02,6.74,6.74,6.74
		c0.42,0,0.83-0.04,1.24-0.11c0.56,2.73,2.35,4.81,5.08,5.87c0.8,0.31,1.61,0.46,2.4,0.46c0.51,0,1.03-0.06,1.53-0.19
		c0.5,1.28,1.64,2.88,4.18,3.91c0.89,0.36,1.78,0.55,2.65,0.55c0.71,0,1.4-0.12,2.06-0.37c1.22,2.96,4.11,4.93,7.34,4.93
		c2.14,0,4.19-0.87,5.69-2.41c1.28,0.71,3.99,2,6.73,2.01c0.35,0,0.69-0.03,1.02-0.07c2.72-0.34,3.98-1.41,4.56-2.23
		c0.1-0.14,0.2-0.3,0.28-0.46c0.64,0.18,1.35,0.33,2.15,0.34c1.48,0,2.91-0.51,4.35-1.56c1.41-1.02,2.42-2.48,2.56-3.73
		c0-0.02,0.01-0.03,0.01-0.05c0.48,0.1,0.97,0.15,1.45,0.15c1.53,0,3.03-0.48,4.47-1.42c2.77-1.82,3.25-4.19,3.21-5.74
		c0.48,0.1,0.98,0.15,1.47,0.15c1.43,0,2.84-0.43,4.18-1.29c1.72-1.1,2.75-2.78,2.91-4.73c0.11-1.33-0.22-2.67-0.92-3.82
		c4.64-2,15.25-5.87,27.73-8.68c-0.08-0.97-0.21-1.92-0.39-2.88C120.65,43.71,109.38,48.6,106.55,49.85 M64.3,74.27
		c-2.93,0-5.32-2.28-5.43-5.19c-0.01-0.25-0.03-0.91-0.59-0.91c-0.23,0-0.43,0.14-0.66,0.35c-0.64,0.6-1.47,1.21-2.67,1.21
		c-0.54,0-1.14-0.13-1.76-0.38c-3.1-1.25-3.14-3.38-3.02-4.24c0.03-0.23,0.05-0.47-0.11-0.65l-0.19-0.17h-0.19
		c-0.16,0-0.32,0.06-0.54,0.22c-0.9,0.63-1.76,0.93-2.63,0.93c-0.48,0-0.97-0.1-1.47-0.29c-4.08-1.59-3.76-5.44-3.56-6.6
		c0.03-0.24-0.03-0.42-0.18-0.54l-0.29-0.24l-0.27,0.26c-0.8,0.77-1.83,1.19-2.93,1.19c-2.34,0-4.24-1.9-4.24-4.24
		c0-2.34,1.9-4.23,4.24-4.23c2.11,0,3.91,1.59,4.18,3.7l0.14,1.14l0.62-0.96c0.07-0.11,1.78-2.7,4.93-2.7c0.6,0,1.22,0.1,1.84,0.29
		c2.51,0.76,2.93,3.04,3,3.99c0.04,0.55,0.44,0.58,0.51,0.58c0.22,0,0.38-0.14,0.49-0.26c0.47-0.49,1.5-1.32,3.12-1.32
		c0.74,0,1.52,0.18,2.34,0.53c3.99,1.71,2.18,6.78,2.16,6.83c-0.34,0.84-0.36,1.21-0.03,1.42l0.16,0.08h0.12
		c0.18,0,0.4-0.08,0.77-0.2c0.54-0.19,1.36-0.47,2.13-0.47h0c3,0.03,5.44,2.48,5.44,5.44C69.74,71.84,67.3,74.27,64.3,74.27z"/>
	<path class="st0" d="M375.38,16.47c-2.51-3.14-6.31-4.71-11.41-4.71c-5.1,0-8.9,1.57-11.41,4.71c-2.51,3.14-3.76,6.85-3.76,11.13
		c0,4.36,1.25,8.08,3.76,11.18c2.5,3.09,6.31,4.64,11.41,4.64c5.11,0,8.91-1.55,11.41-4.64c2.51-3.1,3.76-6.82,3.76-11.18
		C379.14,23.32,377.89,19.61,375.38,16.47 M369.17,34.48c-1.22,1.61-2.96,2.42-5.23,2.42c-2.27,0-4.02-0.81-5.24-2.42
		c-1.23-1.61-1.84-3.91-1.84-6.88c0-2.97,0.61-5.26,1.84-6.86c1.22-1.6,2.97-2.41,5.24-2.41c2.27,0,4.01,0.8,5.23,2.41
		c1.22,1.6,1.82,3.89,1.82,6.86C370.99,30.58,370.39,32.87,369.17,34.48z"/>
	<path class="st0" d="M311.35,13.85c-2.54-1.29-5.45-1.94-8.72-1.94c-5.03,0-8.58,1.31-10.65,3.93c-1.3,1.68-2.03,3.82-2.2,6.42
		h7.51c0.19-1.15,0.56-2.06,1.11-2.73c0.77-0.91,2.09-1.37,3.95-1.37c1.67,0,2.92,0.23,3.79,0.7c0.85,0.46,1.29,1.31,1.29,2.52
		c0,1-0.56,1.74-1.68,2.21c-0.62,0.27-1.66,0.5-3.11,0.68l-2.66,0.33c-3.03,0.38-5.32,1.02-6.88,1.92
		c-2.85,1.64-4.27,4.29-4.27,7.95c0,2.82,0.88,5,2.65,6.54c1.76,1.54,4.01,2.18,6.72,2.31c17,0.76,16.8-8.96,16.96-10.98V21.17
		C315.16,17.59,313.88,15.14,311.35,13.85 M307.4,30.82c-0.05,2.61-0.8,4.4-2.23,5.38c-1.43,0.98-3,1.48-4.7,1.48
		c-1.08,0-1.99-0.3-2.74-0.89c-0.75-0.59-1.12-1.55-1.12-2.88c0-1.49,0.61-2.59,1.84-3.3c0.73-0.42,1.92-0.78,3.58-1.06l1.78-0.33
		c0.88-0.17,1.58-0.35,2.09-0.54c0.51-0.19,1.01-0.43,1.51-0.75V30.82z"/>
	<path class="st0" d="M272.59,18.57c1.94,0,3.37,0.6,4.29,1.8c0.63,0.89,1.03,1.89,1.18,3h8.38c-0.46-4.23-1.94-7.18-4.44-8.86
		c-2.51-1.67-5.72-2.51-9.64-2.51c-4.62,0-8.24,1.42-10.86,4.25c-2.63,2.84-3.94,6.8-3.94,11.89c0,4.51,1.19,8.19,3.56,11.02
		c2.38,2.83,6.08,4.25,11.12,4.25c5.04,0,8.85-1.7,11.41-5.1c1.61-2.1,2.51-4.34,2.7-6.7H278c-0.17,1.56-0.66,2.83-1.47,3.81
		c-0.81,0.98-2.16,1.47-4.09,1.47c-2.71,0-4.55-1.23-5.53-3.71c-0.53-1.32-0.81-3.07-0.81-5.24c0-2.28,0.27-4.11,0.81-5.49
		C267.94,19.87,269.83,18.57,272.59,18.57"/>
	<path class="st0" d="M255.31,12.01c-17.22,0-16.2,15.25-16.2,15.25v15.49h7.82V28.22c0-2.38,0.3-4.14,0.9-5.29
		c1.07-2.03,3.17-3.05,6.29-3.05c0.23,0,0.54,0.01,0.93,0.03c0.38,0.02,0.81,0.05,1.31,0.11v-7.95c-0.35-0.02-0.57-0.03-0.67-0.04
		C255.58,12.02,255.46,12.01,255.31,12.01"/>
	<path class="st0" d="M226.6,34.65c-0.33,0.47-0.68,0.87-1.07,1.18c-1.1,0.91-2.6,1.19-4.37,1.19c-1.67,0-2.98-0.25-4.16-1
		c-1.95-1.2-3.05-3.23-3.16-6.2h21.62c0.03-2.56-0.05-4.53-0.26-5.89c-0.36-2.33-1.15-4.38-2.36-6.14c-1.35-2-3.06-3.46-5.13-4.4
		c-2.07-0.92-4.39-1.39-6.98-1.39c-4.36,0-7.89,1.37-10.62,4.11c-2.73,2.75-4.1,6.69-4.1,11.83c0,5.49,1.51,9.45,4.54,11.89
		c3.02,2.43,6.51,3.65,10.46,3.65c4.78,0,8.51-1.44,11.17-4.33c1.43-1.52,2.33-3.02,2.71-4.51H226.6 M216.1,20.1
		c1.1-1.13,2.64-1.7,4.63-1.7c1.83,0,3.37,0.53,4.61,1.6c1.23,1.06,1.93,2.63,2.07,4.69h-13.37C214.31,22.76,215,21.23,216.1,20.1z"
		/>
	<path class="st0" d="M202.88,42.74h-7.14V24.77c0-1.64-0.54-5.55-5.25-5.55c-3.14,0-5.41,2.26-5.41,5.55v17.98h-7.15V24.77
		c0-1.64-0.49-5.55-5.19-5.55c-3.19,0-5.41,2.26-5.41,5.55v17.98h-7.14v-17.8c0-7.42,4.92-13.03,12.56-13.03
		c3.79,0,6.87,1.59,8.88,4.14c2.11-2.55,5.25-4.14,8.87-4.14c7.79,0,12.39,5.39,12.39,13.03V42.74"/>
	<path class="st0" d="M346.47,2.62c0,0-7.87-0.84-7.87,5.48l-0.01,8.37c-0.87-1.4-2-2.49-3.4-3.28c-1.39-0.79-2.99-1.19-4.79-1.19
		c-3.9,0-7.02,1.46-9.35,4.36c-2.34,2.91-3.5,7.1-3.5,12.16c0,4.39,1.18,8,3.55,10.8c2.37,2.8,7.02,4.03,11.14,4.03
		c14.39,0,14.22-12.34,14.22-12.34L346.47,2.62 M337.1,34.55c-1.14,1.64-2.82,2.45-5.01,2.45c-2.2,0-3.84-0.82-4.92-2.47
		c-1.08-1.65-1.62-4.04-1.62-6.78c0-2.54,0.53-4.67,1.59-6.39c1.06-1.71,2.72-2.57,5-2.57c1.49,0,2.79,0.47,3.92,1.42
		c1.83,1.56,2.75,4.36,2.75,7.99C338.82,30.8,338.24,32.91,337.1,34.55z"/>
	<path class="st1" d="M217.25,92.35c0,1.06-0.38,1.97-1.15,2.72c-0.76,0.76-1.68,1.14-2.76,1.14h-3.9V69.04
		c0-5.28,1.78-8.59,4.71-10.82c1.93-1.48,4.82-2.89,10.22-2.89c3.65,0,7.92,1.42,10.23,4.23c2.59,3.17,3.67,6.69,3.67,11.3
		c0,4.76-1.15,8.61-3.45,11.56c-2.3,2.88-5.25,4.31-8.85,4.31c-1.91,0-3.6-0.34-5.05-1.02c-1.54-0.76-2.76-1.93-3.68-3.52V92.35
		 M230.35,71.2c0-2.95-0.57-5.21-1.73-6.8c-1.15-1.58-2.79-2.38-4.94-2.38c-2.07,0-3.68,0.8-4.83,2.38c-1.07,1.44-1.6,3.71-1.6,6.8
		c0,2.88,0.57,5.02,1.72,6.46c1.15,1.59,2.79,2.38,4.94,2.38c1.99,0,3.56-0.79,4.71-2.38C229.78,76.08,230.35,73.93,230.35,71.2"/>
	<path class="st1" d="M290.06,84.23v-1.92c-1.35,2.12-3.18,3.43-5.47,3.96c-2.3,0.52-4.57,0.34-6.82-0.57
		c-2.26-0.9-4.2-2.58-5.82-5.04c-1.61-2.46-2.42-5.69-2.42-9.69c0-4.68,1.07-8.47,3.21-11.38c2.15-2.91,5.59-4.23,10.33-4.36
		c4.67-0.12,7.38,0.93,10.04,2.95c2.91,2.21,4.62,5.59,4.62,10.87v15.98c0.01,5.08-3.53,14.51-14.67,13.71
		c-6.9-0.5-10.73-3.33-12.86-9.74h8.24c0.6,1.05,1.52,1.87,2.77,2.43c1.24,0.57,2.48,0.72,3.72,0.46c1.24-0.26,2.37-1,3.39-2.21
		C289.32,88.46,289.91,86.65,290.06,84.23 M277.19,71.2c0,5.21,1.51,8.1,4.52,8.67c3,0.56,5.23-0.14,6.66-2.1
		c0.68-0.83,1.16-2.13,1.46-3.9c0.3-1.77,0.32-3.53,0.06-5.27c-0.26-1.74-0.89-3.29-1.86-4.65c-0.98-1.36-2.41-2.04-4.29-2.04
		c-2.56,0-4.28,0.95-5.19,2.83C277.64,66.63,277.19,68.79,277.19,71.2"/>
	<path class="st1" d="M262.84,57.39c-2.54-1.29-5.45-1.94-8.72-1.94c-5.04,0-8.58,1.31-10.65,3.93c-1.3,1.68-2.03,3.82-2.2,6.42
		h7.52c0.18-1.15,0.55-2.06,1.11-2.73c0.77-0.91,2.09-1.37,3.95-1.37c1.67,0,2.93,0.23,3.79,0.7c0.85,0.46,1.29,1.31,1.29,2.53
		c0,1-0.56,1.74-1.68,2.21c-0.62,0.27-1.66,0.5-3.11,0.68l-2.66,0.32c-3.02,0.38-5.32,1.02-6.88,1.92
		c-2.85,1.64-4.27,4.29-4.27,7.95c0,2.82,0.88,5.01,2.65,6.54c1.76,1.54,4.01,2.19,6.72,2.31c16.99,0.76,16.8-8.96,16.96-10.98
		V64.71C266.65,61.12,265.38,58.68,262.84,57.39 M258.89,74.35c-0.05,2.61-0.8,4.4-2.23,5.38c-1.43,0.98-3,1.48-4.7,1.48
		c-1.08,0-1.99-0.3-2.73-0.89c-0.75-0.59-1.12-1.55-1.12-2.89c0-1.49,0.61-2.59,1.84-3.3c0.73-0.42,1.92-0.78,3.58-1.06l1.77-0.33
		c0.89-0.17,1.58-0.35,2.08-0.54c0.52-0.19,1.01-0.43,1.51-0.75V74.35z"/>
	<path class="st1" d="M327.29,59.85c-2.51-3.14-6.31-4.71-11.42-4.71c-5.09,0-8.9,1.57-11.41,4.71c-2.51,3.14-3.76,6.84-3.76,11.13
		c0,4.36,1.25,8.08,3.76,11.17c2.51,3.09,6.31,4.64,11.41,4.64c5.1,0,8.91-1.55,11.42-4.64c2.5-3.1,3.75-6.82,3.75-11.17
		C331.05,66.69,329.8,62.99,327.29,59.85 M321.08,77.85c-1.21,1.62-2.95,2.42-5.22,2.42c-2.27,0-4.02-0.81-5.24-2.42
		c-1.23-1.61-1.84-3.9-1.84-6.88c0-2.97,0.61-5.26,1.84-6.86c1.22-1.61,2.97-2.41,5.24-2.41c2.27,0,4.01,0.8,5.22,2.41
		c1.22,1.6,1.83,3.89,1.83,6.86C322.91,73.95,322.3,76.24,321.08,77.85"/>
</g>
</svg>
